<svg width="1480" height="641" viewBox="0 0 1480 641" fill="none" xmlns="http://www.w3.org/2000/svg">
<path d="M1294.72 1.10727C1411.06 -5.60092 1480 65.85 1480 65.85V599H1.04938e-05L0 65.85C0 65.85 124.618 176.903 267.452 198.513C430.501 223.182 512.199 98.6321 677.085 96.0319C813.706 93.8774 892.685 201.515 1021.7 156.521C1169.68 104.912 1166.5 8.50009 1294.72 1.10727Z" fill="#F8F4FF"/>
<path d="M1294.72 43.1073C1411.06 36.3991 1480 107.85 1480 107.85V641H1.04938e-05L0 107.85C0 107.85 124.618 218.903 267.452 240.513C430.501 265.182 512.199 140.632 677.085 138.032C813.706 135.877 892.685 243.515 1021.7 198.521C1169.68 146.912 1166.5 50.5001 1294.72 43.1073Z" fill="#F1E9FF"/>
</svg>
