<svg width="78" height="80" viewBox="0 0 78 80" fill="none" xmlns="http://www.w3.org/2000/svg">
<path d="M39.3259 23.9376C54.6072 23.9376 64.312 27.8401 64.312 30.514C64.312 33.1879 54.6072 37.0903 39.3259 37.0903C24.0446 37.0903 14.3398 33.1879 14.3398 30.514C14.3398 27.8401 24.117 23.9376 39.3259 23.9376ZM39.3259 22.4923C24.6964 22.4923 12.8914 26.1057 12.8914 30.514C12.8914 34.9945 24.6964 38.5356 39.3259 38.5356C53.9554 38.5356 65.7604 34.9223 65.7604 30.514C65.7604 26.1057 53.9554 22.4923 39.3259 22.4923Z" fill="#685A70"/>
<path d="M39.3983 52.7001C26.5794 52.7001 12.9638 49.7371 12.9638 44.317H14.4123C14.4123 47.6413 24.4791 51.2547 39.3983 51.2547C54.1003 51.2547 64.3844 47.5691 64.3844 44.317H65.8329C65.8329 49.5926 52.4345 52.7001 39.3983 52.7001Z" fill="#685A70"/>
<path d="M37.8774 70.6224C32.3008 70.6224 26.6518 70.1165 21.3649 68.4543C19.5543 67.8762 17.7437 67.1535 16.2228 66.0695C15.3538 65.4191 14.3398 64.4796 14.3398 63.3234C14.3398 62.3839 12.8914 62.3839 12.9638 63.3234C13.0362 66.7922 17.3816 68.5989 20.1337 69.5384C25.7827 71.4896 32.0111 72.0677 37.9499 72.0677C38.8189 72.0677 38.8189 70.6224 37.8774 70.6224Z" fill="#685A70"/>
<path d="M64.3844 30.5862C64.3844 34.2719 64.3844 37.9575 64.3844 41.7154C64.3844 47.6413 64.3844 53.495 64.3844 59.4209C64.3844 60.794 64.3844 62.0948 64.3844 63.4679C64.3844 64.4074 65.8329 64.4074 65.8329 63.4679C65.8329 59.7823 65.8329 56.0966 65.8329 52.3387C65.8329 46.4128 65.8329 40.5591 65.8329 34.6332C65.8329 33.2601 65.8329 31.9593 65.8329 30.5862C65.7604 29.719 64.3844 29.719 64.3844 30.5862Z" fill="#685A70"/>
<path d="M12.8914 30.6585C12.8914 34.3441 12.8914 38.0298 12.8914 41.7877C12.8914 47.7136 12.8914 53.5673 12.8914 59.4932C12.8914 60.8663 12.8914 62.1671 12.8914 63.5402C12.8914 64.4796 14.3398 64.4796 14.3398 63.5402C14.3398 59.8545 14.3398 56.1689 14.3398 52.411C14.3398 46.4851 14.3398 40.6314 14.3398 34.7055C14.3398 33.3324 14.3398 32.0316 14.3398 30.6585C14.3398 29.719 12.8914 29.719 12.8914 30.6585Z" fill="#685A70"/>
<path d="M34.546 17.0722C34.546 20.9747 34.546 24.8771 34.546 28.7795C34.546 29.3577 34.546 29.8636 34.546 30.4417C34.546 31.3812 35.9944 31.3812 35.9944 30.4417C35.9944 26.5393 35.9944 22.6368 35.9944 18.7344C35.9944 18.1562 35.9944 17.6504 35.9944 17.0722C35.922 16.1328 34.546 16.1328 34.546 17.0722Z" fill="#685A70"/>
<path d="M42.8022 22.1309C42.8022 25.2384 42.8022 28.2737 42.8022 31.3812C42.8022 31.8148 42.8022 32.2484 42.8022 32.682C42.8022 33.6215 44.1783 33.6215 44.1783 32.682C44.1783 29.5745 44.1783 26.5393 44.1783 23.4318C44.1783 22.9982 44.1783 22.5645 44.1783 22.1309C44.2507 21.1915 42.8022 21.1915 42.8022 22.1309Z" fill="#685A70"/>
<path d="M35.1978 13.5311C35.5977 13.5311 35.922 12.2693 35.922 10.7127C35.922 9.15612 35.5977 7.89427 35.1978 7.89427C34.7978 7.89427 34.4735 9.15612 34.4735 10.7127C34.4735 12.2693 34.7978 13.5311 35.1978 13.5311Z" fill="#685A70" stroke="#685A70" stroke-miterlimit="10"/>
<path d="M43.6713 18.5898C44.0713 18.5898 44.3955 17.328 44.3955 15.7714C44.3955 14.2148 44.0713 12.953 43.6713 12.953C43.2713 12.953 42.9471 14.2148 42.9471 15.7714C42.9471 17.328 43.2713 18.5898 43.6713 18.5898Z" fill="#685A70" stroke="#685A70" stroke-miterlimit="10"/>
</svg>
