<?xml version="1.0" encoding="utf-8"?>
<!-- Generator: Adobe Illustrator 25.1.0, SVG Export Plug-In . SVG Version: 6.00 Build 0)  -->
<svg version="1.1" id="Слой_1" xmlns="http://www.w3.org/2000/svg" xmlns:xlink="http://www.w3.org/1999/xlink" x="0px" y="0px"
	 viewBox="0 0 346 346" style="enable-background:new 0 0 346 346;" xml:space="preserve">
<style type="text/css">
	.st0{clip-path:url(#SVGID_2_);fill:none;stroke:#A866ED;stroke-width:12.04;stroke-linecap:round;stroke-linejoin:round;}
	.st1{clip-path:url(#SVGID_2_);fill:none;stroke:#121330;stroke-width:12.04;stroke-linecap:round;stroke-linejoin:round;}
</style>
<g>
	<defs>
		<rect id="SVGID_1_" x="5" y="4" width="500" height="500"/>
	</defs>
	<clipPath id="SVGID_2_">
		<use xlink:href="#SVGID_1_"  style="overflow:visible;"/>
	</clipPath>
	<path class="st0" d="M291.9,246.7l13,26.4l29.1,4.2l-21,20.5l5,29l-26-13.7l-26,13.7l5-29l-21-20.5l29.1-4.2L291.9,246.7
		L291.9,246.7z M172.9,246.7l13,26.4l29.1,4.2l-21,20.5l5,29l-26-13.7l-26,13.7l5-29l-21-20.5l29.1-4.2L172.9,246.7L172.9,246.7z
		 M54.9,246.7l13,26.4l29.1,4.2l-21,20.5l5,29l-26-13.7l-26,13.7l5-29l-21-20.5l29.1-4.2L54.9,246.7z"/>
	<path class="st1" d="M271.5,109.7L259.6,184c-0.1,0.8-0.3,1.7-0.7,2.5c-3.7,9-12.6,15.2-22.7,15.2h-41.1
		c-27.5,0-54.7-4.9-80.4-14.6l0,0V95.5h8.1c15.8,0,30.8-8,39-21.5c4.3-7.2,6.7-15.5,6.7-24.9V19.8c0-7,7.3-11.8,13.7-8.9
		c11.5,5.2,16.5,16.8,16.5,30.2l3,43.2h42.9C259.3,84.3,270.8,95.8,271.5,109.7L271.5,109.7z M114.7,95.4V187l-39.2,0.1V95.5
		L114.7,95.4L114.7,95.4z"/>
</g>
</svg>
