<svg width="30" height="17" viewBox="0 0 30 17" fill="none" xmlns="http://www.w3.org/2000/svg">
<path d="M24.8946 9.74829C24.4096 9.15329 24.5484 8.88857 24.8946 8.35671C24.9009 8.35064 28.9047 2.97621 29.3173 1.15357L29.3198 1.15236C29.5248 0.488143 29.3198 0 28.3285 0H25.0484C24.2133 0 23.8283 0.418929 23.6221 0.887643C23.6221 0.887643 21.952 4.77093 19.5894 7.28814C18.8269 8.0155 18.4744 8.24864 18.0581 8.24864C17.8531 8.24864 17.5344 8.0155 17.5344 7.35129V1.15236C17.5344 0.355786 17.3006 0 16.6093 0H11.4516C10.9279 0 10.6166 0.371572 10.6166 0.717643C10.6166 1.47293 11.7979 1.64657 11.9204 3.77157V8.38221C11.9204 9.3925 11.7317 9.57829 11.3129 9.57829C10.1979 9.57829 7.49151 5.67921 5.8877 1.21671C5.56394 0.350928 5.24768 0.0012142 4.4064 0.0012142H1.12504C0.188756 0.0012142 0 0.420143 0 0.888857C0 1.717 1.11504 5.83464 5.18518 11.2746C7.89777 14.9879 11.7179 17 15.193 17C17.2818 17 17.5369 16.5531 17.5369 15.7845C17.5369 12.2364 17.3481 11.9012 18.3944 11.9012C18.8794 11.9012 19.7144 12.1344 21.6645 13.9254C23.8933 16.0492 24.2596 17 25.5071 17H28.7872C29.7223 17 30.196 16.5531 29.9235 15.6716C29.2998 13.8174 25.0846 10.0033 24.8946 9.74829Z" fill="#2F2F2F"/>
</svg>
