<svg width="35" height="25" viewBox="0 0 35 25" fill="none" xmlns="http://www.w3.org/2000/svg">
<path d="M34.2789 3.83454C33.8756 2.33512 32.6934 1.15314 31.1942 0.749391C28.4553 0 17.4996 0 17.4996 0C17.4996 0 6.54435 0 3.80549 0.720979C2.33512 1.1243 1.12409 2.33533 0.720766 3.83454C0 6.57319 0 12.2528 0 12.2528C0 12.2528 0 17.961 0.720766 20.6711C1.12451 22.1703 2.30628 23.3522 3.8057 23.756C6.57319 24.5056 17.5 24.5056 17.5 24.5056C17.5 24.5056 28.4553 24.5056 31.1942 23.7846C32.6936 23.3811 33.8756 22.1991 34.2793 20.6999C34.9999 17.961 34.9999 12.2816 34.9999 12.2816C34.9999 12.2816 35.0287 6.57319 34.2789 3.83454ZM14.0116 17.4998V7.00578L23.1217 12.2528L14.0116 17.4998Z" fill="#2F2F2F"/>
</svg>
